<?xml version="1.0" standalone="no"?>
<!DOCTYPE svg PUBLIC "-//W3C//DTD SVG 20010904//EN"
 "http://www.w3.org/TR/2001/REC-SVG-20010904/DTD/svg10.dtd">
<svg version="1.0" xmlns="http://www.w3.org/2000/svg"
 width="512.000000pt" height="512.000000pt" viewBox="0 0 512.000000 512.000000"
 preserveAspectRatio="xMidYMid meet">

<g transform="translate(0.000000,512.000000) scale(0.100000,-0.100000)"
fill="#000000" stroke="none">
<path d="M186 5104 c-34 -11 -64 -31 -102 -68 -92 -92 -84 77 -84 -1893 l0
-1734 25 -24 c31 -32 69 -32 100 0 l25 24 0 1296 0 1295 2410 0 2410 0 0 -308
0 -309 23 -21 c33 -31 80 -29 106 4 21 26 21 33 21 769 0 854 4 812 -84 901
-93 92 99 84 -2075 84 -1556 -1 -1919 -3 -1933 -14 -39 -29 -42 -99 -6 -123 7
-4 879 -10 1938 -13 1772 -5 1927 -6 1948 -22 58 -40 57 -32 60 -430 l3 -368
-2411 0 -2410 0 0 358 c0 320 2 361 18 392 32 65 56 70 330 70 152 0 251 4
263 11 43 22 43 93 1 125 -26 20 -509 18 -576 -2z"/>
<path d="M3192 4788 c-47 -16 -122 -85 -143 -133 -11 -23 -19 -63 -19 -95 0
-72 26 -126 84 -177 209 -184 509 90 346 316 -58 79 -179 119 -268 89z m133
-173 c16 -15 25 -36 25 -55 0 -71 -91 -107 -140 -55 -72 77 41 185 115 110z"/>
<path d="M3836 4785 c-177 -63 -216 -299 -68 -412 158 -120 382 -11 382 187 0
163 -162 279 -314 225z m142 -172 c30 -32 29 -77 -3 -108 -52 -53 -145 -19
-145 53 0 81 93 115 148 55z"/>
<path d="M4500 4791 c-112 -36 -174 -119 -174 -231 0 -137 96 -234 234 -234
102 0 176 48 219 144 50 110 -1 244 -113 302 -43 22 -128 32 -166 19z m94
-155 c58 -24 68 -118 16 -146 -26 -14 -83 -12 -103 3 -46 33 -36 120 17 143
38 16 31 16 70 0z"/>
<path d="M1325 3673 c-458 -42 -832 -348 -959 -786 -132 -454 52 -944 452
-1205 542 -353 1271 -154 1562 428 125 249 146 563 56 828 -61 178 -183 358
-324 477 -177 149 -369 230 -602 255 -95 10 -109 10 -185 3z m5 -630 l0 -477
340 -341 c187 -187 340 -343 340 -347 0 -14 -170 -119 -237 -147 -135 -55
-194 -66 -368 -66 -136 0 -172 4 -240 23 -374 106 -645 426 -684 806 -44 429
208 829 614 975 63 23 174 49 213 50 l22 1 0 -477z m268 461 c173 -35 320
-113 450 -238 146 -140 241 -312 278 -504 8 -41 14 -78 14 -83 0 -5 -178 -9
-430 -9 l-430 0 0 425 c0 490 -15 437 118 409z m735 -1021 c-24 -156 -64 -270
-136 -386 -80 -128 -45 -144 -342 153 l-260 260 371 0 371 0 -4 -27z"/>
<path d="M2855 3671 c-153 -38 -229 -199 -159 -340 32 -64 86 -106 157 -121
37 -8 305 -10 912 -8 817 3 862 4 895 22 87 46 133 118 134 211 2 113 -75 211
-184 234 -58 13 -1704 14 -1755 2z m1235 -171 c45 -45 33 -112 -25 -136 -31
-12 -121 -14 -616 -12 l-581 3 -24 28 c-31 37 -31 81 1 112 l24 25 601 0 c584
0 601 -1 620 -20z m527 -2 c33 -31 31 -87 -3 -119 -25 -23 -32 -24 -187 -27
l-162 -4 0 86 0 86 164 0 c155 0 166 -1 188 -22z"/>
<path d="M5013 3130 c-12 -5 -26 -18 -32 -29 -8 -14 -11 -452 -11 -1433 0
-1325 -1 -1415 -18 -1448 -10 -20 -32 -42 -52 -52 -33 -17 -166 -18 -2340 -18
-2174 0 -2307 1 -2340 18 -70 34 -70 36 -70 515 l0 428 -25 24 c-31 32 -69 32
-100 0 l-25 -24 0 -434 c0 -508 0 -508 84 -593 93 -92 -149 -84 2476 -84 2625
0 2383 -8 2476 84 91 92 84 -37 84 1577 0 780 -3 1425 -6 1434 -6 15 -54 46
-71 44 -4 0 -18 -4 -30 -9z"/>
<path d="M2834 2816 c-61 -19 -110 -61 -139 -119 -68 -138 8 -302 156 -336 28
-7 357 -11 885 -11 952 0 911 -3 989 75 111 111 88 285 -49 370 l-49 30 -876
2 c-698 2 -884 -1 -917 -11z m813 -168 c30 -28 31 -83 1 -115 l-21 -23 -379 0
-379 0 -24 25 c-31 30 -32 73 -4 109 l20 26 382 0 c377 0 381 0 404 -22z m970
0 c30 -28 31 -83 1 -115 l-21 -23 -387 0 -386 0 1 80 0 80 384 0 c381 0 385 0
408 -22z"/>
<path d="M2827 1966 c-95 -34 -157 -123 -157 -224 0 -92 48 -168 135 -215 l40
-22 880 0 c722 0 887 2 919 14 60 21 122 89 141 156 34 114 -15 223 -125 281
-33 18 -78 19 -915 21 -718 2 -887 0 -918 -11z m957 -150 c22 -9 37 -24 44
-45 13 -36 8 -56 -21 -88 l-20 -23 -459 0 -459 0 -24 25 c-41 40 -26 113 29
135 11 5 214 9 449 9 344 1 434 -2 461 -13z m805 3 c37 -13 51 -35 51 -83 0
-25 -7 -40 -26 -55 -26 -20 -38 -21 -328 -21 l-301 0 0 85 0 85 286 0 c183 0
297 -4 318 -11z"/>
<path d="M565 1101 c-136 -34 -239 -164 -239 -301 -1 -133 61 -233 182 -292
l67 -33 330 0 330 0 67 33 c243 120 237 461 -11 576 -44 20 -62 21 -371 23
-179 1 -338 -2 -355 -6z m325 -145 c0 -2 -10 -25 -21 -51 -18 -40 -21 -62 -17
-129 3 -49 11 -94 21 -113 l18 -33 -147 0 c-138 0 -150 1 -189 25 -51 29 -75
75 -75 143 0 63 30 109 90 140 39 20 59 22 182 22 76 0 138 -2 138 -4z m346
-15 c57 -26 87 -72 92 -140 3 -46 0 -62 -20 -91 -71 -105 -206 -109 -281 -8
-53 71 -21 192 62 235 53 28 92 29 147 4z"/>
<path d="M2204 1096 c-98 -31 -182 -117 -211 -215 -34 -118 2 -239 97 -324 85
-76 104 -80 429 -85 290 -4 384 3 444 34 49 26 117 95 145 149 23 43 27 62 27
135 0 103 -21 157 -90 225 -88 89 -93 90 -470 92 -249 2 -340 -1 -371 -11z
m176 -161 c74 -38 104 -157 58 -225 -40 -59 -84 -82 -149 -78 -101 7 -169 88
-154 185 8 53 61 118 109 133 38 11 98 5 136 -15z m492 13 c54 -16 105 -75
113 -131 9 -58 -19 -124 -66 -158 -32 -23 -44 -24 -193 -27 -136 -3 -158 -1
-148 11 6 7 19 42 28 77 18 71 13 130 -16 198 l-19 42 131 0 c72 0 148 -5 170
-12z"/>
<path d="M3865 1096 c-136 -44 -225 -161 -225 -298 0 -132 62 -233 178 -290
l67 -33 281 -3 c304 -4 387 3 460 39 57 29 118 95 146 157 32 71 30 180 -3
252 -32 68 -84 122 -152 158 l-52 27 -330 2 c-247 2 -340 -1 -370 -11z m330
-153 c-46 -111 -46 -188 0 -295 7 -17 -4 -18 -142 -18 -139 0 -152 2 -183 23
-76 51 -100 138 -62 214 39 76 81 91 261 92 123 1 133 0 126 -16z m381 -18
c128 -98 63 -295 -96 -295 -81 0 -140 45 -161 123 -20 74 22 159 96 193 44 21
119 11 161 -21z"/>
</g>
</svg>
